<svg xmlns="http://www.w3.org/2000/svg" viewBox="0 0 138.988 69.54">
  <defs>
    <clipPath id="a">
      <path fill="#fafafc" d="M736.037-665.344a4.8 4.8 0 0 0-3.144 1.942l-1.265 1.754c-.012.018-.024.035-.039.052l-.983 1.221c-.1.13-.208.264-.344.406l-1.145 1.269-1.385 1.37c-.179.154-.359.314-.543.476l-.093.083c-.326.289-.662.587-1 .872l-1.396 1.089c-.1.074-.2.143-.308.216l-1.225.852c-.21.143-.429.276-.669.421-.141.085-.283.171-.431.264-.538.351-1.108.654-1.711.974-.21.111-.422.224-.632.338-.239.129-.489.241-.771.37-.162.073-.324.146-.48.222l-.169.078c-.361.169-.735.344-1.127.485l-1.343.529-1.413.461-.2.065-.069.023c-.144.048-.288.1-.432.135l-1.623.422c-.175.047-.374.1-.571.133l-1.532.3c-.239.054-.5.087-.729.116l-1.558.21c-.146.022-.3.031-.464.042-.1.006-.195.013-.286.021l-1.544.115-2.093.023c-.109 0-.22 0-.328-.006l-1.521-.074c-.237-.01-.481-.019-.734-.053l-1.573-.171c-.184-.014-.371-.047-.578-.083l-1.679-.284c-.145-.026-.288-.06-.457-.1-.092-.023-.184-.044-.272-.064l-1.463-.341-1.46-.433c-.41-.109-.815-.258-1.208-.4l-.158-.057c-.163-.062-.326-.119-.515-.186-.28-.1-.57-.2-.834-.315-.214-.093-.428-.184-.661-.284-.666-.283-1.295-.551-1.894-.871-.152-.078-.3-.153-.455-.227-.262-.129-.51-.25-.745-.383l-1.36-.781c-.116-.066-.231-.132-.33-.191l-1.56-1.019c-.416-.29-.816-.587-1.212-.881l-.052-.039c-.206-.153-.408-.3-.586-.431l-1.6-1.328-1.367-1.274c-.152-.135-.294-.285-.432-.43l-.65-.68c-.477-.477-.844-.914-1.139-1.263-.116-.138-.221-.263-.311-.365l-.573-.671a1.937 1.937 0 0 0-2.587-.3 1.91 1.91 0 0 0-.773 1.255 1.911 1.911 0 0 0 .341 1.434l.5.692c.086.116.18.248.285.394.3.422.678.947 1.176 1.535l.634.779c.134.165.3.37.481.56l1.385 1.512 1.672 1.631c.2.174.406.352.613.534.425.372.864.757 1.348 1.154l1.653 1.279c.129.093.261.184.394.275l1.427.978c.277.185.566.359.861.535.15.089.3.18.446.269.708.451 1.465.847 2.208 1.235l.605.318c.324.171.66.321 1 .471.171.077.343.154.519.236l.146.067c.46.21.937.427 1.426.6l1.623.623 1.662.534c.1.029.191.059.286.09.189.061.378.122.576.174l1.884.479c.239.061.486.124.733.165l1.759.335c.308.065.626.107.951.146l1.859.233c.161.023.3.032.438.042l1.352.094h4.956l.572-.031c.319-.015.632-.033.94-.075l1.8-.206c.262-.024.513-.069.767-.113l1.947-.344c.189-.035.376-.08.563-.125l.056-.013.275-.066.5-.119c.413-.1.824-.2 1.252-.3l1.669-.5c.536-.15 1.063-.345 1.528-.517l.146-.054c.159-.061.319-.118.478-.176l.059-.021c.334-.121.713-.258 1.071-.413.185-.082.37-.162.555-.242l.073-.032c.835-.361 1.624-.7 2.386-1.11.133-.069.266-.136.4-.2l.116-.058c.3-.151.61-.306.91-.477l1.553-.9c.147-.085.292-.169.445-.264l1.824-1.206c.524-.368 1.02-.741 1.5-1.1l.037-.028.661-.5 1.7-1.429 1.738-1.619c.207-.186.4-.389.586-.589l1.318-1.4c.1-.1.191-.206.251-.28l1.36-1.6c.08-.095.164-.2.237-.3a4.792 4.792 0 0 0 .848-3.6 4.8 4.8 0 0 0-1.939-3.145 4.793 4.793 0 0 0-2.814-.913 4.905 4.905 0 0 0-.782.063m-97.094-17.9a8.169 8.169 0 0 1 8.023-8.472c4.832 0 8.079 3.4 8.079 8.472a8.105 8.105 0 0 1-8.135 8.249 8.121 8.121 0 0 1-7.967-8.249m-3.7-11.69a16.4 16.4 0 0 0-4.689 11.746c0 9.2 7.054 16.132 16.41 16.132a12.64 12.64 0 0 0 8.523-2.925 4.134 4.134 0 0 0 3.637 2.2 4.2 4.2 0 0 0 4.193-4.194v-22.7a4.2 4.2 0 0 0-4.193-4.194 4.13 4.13 0 0 0-3.585 2.1 13.114 13.114 0 0 0-8.576-2.83 16.413 16.413 0 0 0-11.72 4.666m82.656 11.558a8.216 8.216 0 0 1 8.247-8.361 8.216 8.216 0 0 1 8.3 8.3 8.37 8.37 0 0 1-8.3 8.417 8.314 8.314 0 0 1-8.247-8.36m-8.387-.168a16.57 16.57 0 0 0 16.634 16.468 16.564 16.564 0 0 0 16.5-14.289v-4.15a15.793 15.793 0 0 0-4.821-9.492 16.846 16.846 0 0 0-11.68-4.612c-9.173 0-16.634 7.212-16.634 16.076m-9.75-23.091v34.693a4.249 4.249 0 0 0 4.193 4.194 4.249 4.249 0 0 0 4.193-4.194v-34.693a4.249 4.249 0 0 0-4.193-4.193 4.249 4.249 0 0 0-4.193 4.193m-74.686-2.892-12.868 15.762v-12.87a4.226 4.226 0 0 0-4.192-4.25 4.306 4.306 0 0 0-4.25 4.25v34.581a4.307 4.307 0 0 0 4.25 4.25 4.227 4.227 0 0 0 4.192-4.25v-13l13.1 15.953.035.042a3.876 3.876 0 0 0 2.959 1.253 4.132 4.132 0 0 0 4.25-4.082 4.686 4.686 0 0 0-1.073-2.94l-12.346-14.557 12.035-14.433a4.459 4.459 0 0 0 1.162-2.923 4.251 4.251 0 0 0-4.249-4.138 3.746 3.746 0 0 0-3 1.358m49.112 26.203a8.21 8.21 0 0 1 7.966-8.417 8.211 8.211 0 0 1 7.967 8.417 8.15 8.15 0 0 1-7.967 8.3 8.15 8.15 0 0 1-7.966-8.3m-8.386-23.371v23.371a16.317 16.317 0 0 0 16.353 16.244A16.069 16.069 0 0 0 698.4-683.3a16.07 16.07 0 0 0-16.242-16.244 16.1 16.1 0 0 0-7.966 2.014v-9.14a4.25 4.25 0 0 0-4.192-4.195 4.25 4.25 0 0 0-4.193 4.194" data-name="Path 1" transform="translate(-603.77 710.865)"/>
    </clipPath>
  </defs>
  <g data-name="Group 6">
    <g data-name="Group 3">
      <path fill="#fafafc" d="M48.601 59.136h-2.266v-1.128h2.112c.874 0 1.322-.225 1.34-.777.016-.521-.185-.713-.9-1.014l-1.088-.447c-1.068-.437-1.641-1-1.641-2.047 0-1.3.836-1.8 2.615-1.8h2.076v1.127h-2.033c-.845 0-1.318.1-1.318.677 0 .362.2.587.923.878l.981.4c1.263.515 1.751 1.014 1.751 2.237 0 1.311-.926 1.9-2.548 1.9" data-name="Path 2"/>
    </g>
    <path fill="#fafafc" d="M19.839 53.043v6.089h-1.35v-6.089h-2.255v-1.127h5.862v1.127Z" data-name="Path 3"/>
    <path fill="#fafafc" d="M62.682 53.043v6.089h-1.353v-6.089h-2.255v-1.127h5.862v1.127Z" data-name="Path 4"/>
    <g data-name="Group 4">
      <path fill="#fafafc" d="M35.639 54.165c0-1.111-.734-1.121-2.493-1.121v2.367h.7c1.237 0 1.788-.261 1.788-1.189Zm.324 4.967-1.579-2.705h-1.24v2.706h-1.353v-7.216h2.031c1.73 0 3.14.36 3.14 2.254a1.974 1.974 0 0 1-1.226 2.03l1.691 2.932Z" data-name="Path 5"/>
    </g>
    <path fill="#fafafc" d="M25.253 51.915H23.9v.677l1.353.676Z" data-name="Path 6"/>
    <g data-name="Group 5">
      <path fill="#fafafc" d="M28.186 55.95c0 1.449-.322 2.054-1.462 2.054s-1.469-.6-1.469-2.049V53.72l-1.353-.676v3.151c0 2.068 1 3.05 2.823 3.05s2.815-.985 2.815-3.053V53.72l-1.353-.676Z" data-name="Path 7"/>
    </g>
    <path fill="#fafafc" d="M29.537 51.915h-1.353v.677l1.353.676Z" data-name="Path 8"/>
    <path fill="#fafafc" d="M56.594 51.915h-2.03l-2.142 7.221h1.353l1.8-6.09 1.8 6.089h1.353Z" data-name="Path 9"/>
    <path fill="#fafafc" d="m43.291 59.136-2.706-3.383v3.383h-1.353V51.92h1.353v3.383l2.706-3.383h1.579l-2.931 3.608 2.931 3.608Z" data-name="Path 10"/>
    <path fill="#fafafc" d="m5.186 53.268 2.48-.9v5.863l-2.48.9Z" data-name="Path 11"/>
    <path fill="#fafafc" d="M5.186 50.562v2.706L0 51.013v-2.706Z" data-name="Path 12"/>
    <path fill="#fafafc" d="M12.852 51.915v2.706l-5.186-2.255V49.66Z" data-name="Path 13"/>
  </g>
  <g data-name="Group 7">
    <g clip-path="url(#a)" data-name="Group 1" transform="translate(.106)">
      <path fill="#fafafc" d="M0 0h138.881v69.54H0z" data-name="Rectangle 11"/>
    </g>
  </g>
</svg>
